PathFileType	4	(X/Y/Z)	C:\Users\Basilio\Documents\Thesis Gigler\squatting_fais\c3dfiles\077\SJ_pre5\markers_experimental.trc
DataRate	CameraRate	NumFrames	NumMarkers	Units	OrigDataRate	OrigDataStartFrame	OrigNumFrames
200.000000	200.000000	4	60	mm	200.000000	0	1356
Frame#	Time	FHD			LBHD			RBHD			C7			T10			CLAV			LSHO			LUUPA			LMUPA			LDUPA			LLEP			LMEP			LRAD			LUL			LRFIN			RSHO			RUPA1			RMUPA			RDUPA			RLEP			RMEP			RRAD			RUL			RUFIN			LASI			RASI			USACR			LSACR			RSACR			LTHI2			LTHI3			LTHI4			LLFC			LMFC			LTIB1			LTIB2			LTIB3			LTIB4			LLMAL			LHEE			LMT1			LMT2			LMT5			RTHI			RTHI2			RTHI3			RTHI4			RLFC			RMFC			RTIB1			RTIB2			RTIB3			RTIB4			RLMAL			RMMAL			RHEE			RMT1			RMT2			RMT5			LTHI1			
		X1	Y1	Z1	X2	Y2	Z2	X3	Y3	Z3	X4	Y4	Z4	X5	Y5	Z5	X6	Y6	Z6	X7	Y7	Z7	X8	Y8	Z8	X9	Y9	Z9	X10	Y10	Z10	X11	Y11	Z11	X12	Y12	Z12	X13	Y13	Z13	X14	Y14	Z14	X15	Y15	Z15	X16	Y16	Z16	X17	Y17	Z17	X18	Y18	Z18	X19	Y19	Z19	X20	Y20	Z20	X21	Y21	Z21	X22	Y22	Z22	X23	Y23	Z23	X24	Y24	Z24	X25	Y25	Z25	X26	Y26	Z26	X27	Y27	Z27	X28	Y28	Z28	X29	Y29	Z29	X30	Y30	Z30	X31	Y31	Z31	X32	Y32	Z32	X33	Y33	Z33	X34	Y34	Z34	X35	Y35	Z35	X36	Y36	Z36	X37	Y37	Z37	X38	Y38	Z38	X39	Y39	Z39	X40	Y40	Z40	X41	Y41	Z41	X42	Y42	Z42	X43	Y43	Z43	X44	Y44	Z44	X45	Y45	Z45	X46	Y46	Z46	X47	Y47	Z47	X48	Y48	Z48	X49	Y49	Z49	X50	Y50	Z50	X51	Y51	Z51	X52	Y52	Z52	X53	Y53	Z53	X54	Y54	Z54	X55	Y55	Z55	X56	Y56	Z56	X57	Y57	Z57	X58	Y58	Z58	X59	Y59	Z59	X60	Y60	Z60	

1	0	-184.2230834960938	1798.846923828125	-939.3034667968752	-341.1714477539063	1723.765258789063	-1017.553161621094	-356.1028137207032	1722.796508789063	-873.0863037109377	-425.3375549316407	1578.102172851563	-949.8753662109377	-445.2354431152345	1240.052368164063	-943.9082641601565	-262.7214965820313	1519.577270507813	-946.4656372070315	-327.4961242675782	1545.786987304688	-1139.553100585938	-372.8801879882813	1400.123168945313	-1299.456420898438	-335.6044616699219	1364.660888671875	-1303.561157226563	-382.6480712890626	1347.538208007813	-1341.773071289063	-373.8539733886719	1285.684814453125	-1373.7060546875	-447.9160461425782	1258.867797851563	-1335.283813476563	-322.8202514648438	1064.127075195313	-1169.072998046875	-275.7652893066407	1025.752807617188	-1222.1044921875	-275.3230590820313	1047.020263671875	-1111.81298828125	-305.0336914062501	1549.516357421875	-755.2595825195314	-368.2054748535157	1414.678833007813	-581.7205810546876	-338.9843750000001	1373.775268554688	-580.2748413085939	-380.2716369628907	1359.481689453125	-538.9886474609376	-380.0484008789063	1294.028686523438	-510.3297119140626	-461.550994873047	1275.76318359375	-542.5289916992189	-363.2933959960938	1061.661743164063	-693.1204833984376	-302.5089416503907	1035.072021484375	-649.2774658203126	-307.1885375976563	1065.627319335938	-744.0941772460939	-250.4178924560547	1033.336791992188	-1074.856323242188	-260.9459228515626	1046.745727539063	-792.9133911132815	-457.8023986816407	1133.786376953125	-937.8338623046877	-462.2505798339845	1102.776489257813	-966.4234619140627	-468.0149536132814	1102.751586914063	-911.1514282226565	-351.4898681640626	758.2960815429689	-1162.161987304688	-304.4799194335938	750.5087280273439	-1156.84423828125	-390.351776123047	711.3132324218751	-1152.671020507813	-390.9781188964845	561.3344726562501	-1148.039672851563	-372.6961975097657	515.0368652343751	-1024.7939453125	-360.4643554687501	337.4203491210938	-1137.99462890625	-402.7944641113282	309.7296447753907	-1211.650024414063	-367.2852783203126	299.2556457519532	-1183.14111328125	-365.7677612304688	213.1932830810547	-1169.79736328125	-432.5725402832032	102.4332351684571	-1225.00146484375	-472.4881591796876	46.44515609741212	-1174.730346679688	-254.165512084961	59.88600158691408	-1198.497802734375	-262.9930725097657	59.04830169677736	-1239.81640625	-386.4785461425782	101.8087387084961	-1148.04052734375	-415.3415527343751	734.6729736328126	-716.3001098632814	-387.4270019531251	674.8934936523439	-701.2407836914064	-353.7659912109376	671.1879272460939	-699.2066650390626	-422.7680664062501	603.0382080078126	-715.7746582031251	-425.2872924804689	534.3762207031251	-707.7951660156251	-367.8823547363282	497.2364501953126	-820.5125732421877	-366.2555847167969	406.8913574218751	-685.1126708984376	-429.0706481933595	328.7170715332032	-650.0230712890626	-382.3617858886719	325.4140014648438	-658.8689575195314	-364.4044799804688	275.3388061523438	-685.2255249023439	-423.8521728515626	98.12278747558597	-625.6816406250001	-374.3767089843751	94.85842132568361	-704.5958862304689	-465.6860351562501	44.53420639038087	-683.5866699218751	-247.2918395996094	60.08064270019533	-618.4401245117189	-260.3622131347657	61.37986373901369	-583.0286865234376	-286.3144836425782	41.50624084472657	-538.3934936523439	nan	nan	nan	
2	0.005	-184.4175872802735	1799.004028320313	-939.2512817382815	-341.1428222656251	1723.757690429688	-1017.470764160156	-356.3027343750001	1722.718139648438	-873.0569458007815	-425.4050598144532	1578.084106445313	-949.8627929687502	-445.2108459472657	1240.026977539063	-943.8646240234377	-262.7899475097657	1519.57177734375	-946.4088134765627	-327.4799804687501	1545.770874023438	-1139.478149414063	-372.7504882812501	1400.080932617188	-1299.386840820313	-335.3506164550782	1364.586181640625	-1303.517944335938	-382.5255737304688	1347.477294921875	-1341.795288085938	-373.7441406250001	1285.632202148438	-1373.68017578125	-447.737518310547	1258.852294921875	-1335.325317382813	-322.6136779785157	1064.186889648438	-1168.927856445313	-275.6107788085938	1025.7568359375	-1222.064453125	-275.2667236328126	1047.012573242188	-1111.772705078125	-305.1013488769532	1549.531127929688	-755.2070922851564	-368.2458496093751	1414.665405273438	-581.6376953125001	-338.9628906250001	1373.846313476563	-580.1428833007814	-380.3732910156251	1359.434326171875	-539.0251464843751	-380.0972595214844	1294.012329101563	-510.3253173828126	-461.6196289062501	1275.734619140625	-542.5254516601564	-363.2773132324219	1061.660278320313	-693.0695800781251	-302.5487060546876	1035.051635742188	-649.2036132812501	-307.1559143066407	1065.625122070313	-744.0285034179689	-250.3689270019532	1033.3134765625	-1074.815185546875	-261.0419921875001	1046.6064453125	-792.9901123046877	-457.7718200683595	1133.814331054688	-937.7766113281252	-462.1972656250001	1102.81787109375	-966.4006347656252	-467.9629821777345	1102.726318359375	-911.071472167969	-351.4956054687501	758.2352294921876	-1162.112548828125	-304.4877319335938	750.4758911132814	-1156.743530273438	-390.2922668457032	711.3452758789064	-1152.623779296875	-390.9922790527345	561.3433837890626	-1148.022583007813	-372.7112731933594	515.0416259765626	-1024.760009765625	-359.6565246582032	337.0258483886719	-1137.51220703125	-402.7944641113282	309.7296447753907	-1211.650024414063	-367.1785583496094	299.3045349121094	-1183.1435546875	-365.7934570312501	213.1992492675782	-1169.786254882813	-432.5647277832032	102.4505233764649	-1224.980834960938	-472.487030029297	46.43869018554688	-1174.73046875	-254.1600189208985	59.89067459106447	-1198.5009765625	-262.9939575195313	59.04199600219728	-1239.843505859375	-386.4410705566407	101.8006286621094	-1148.03515625	-415.3298950195314	734.6792602539064	-716.2565307617189	-387.4244079589845	674.8870239257814	-701.2395019531251	-353.7686462402344	671.1633911132814	-699.2030029296876	-422.7730712890626	603.0271606445314	-715.7262573242189	-425.2991333007814	534.3784790039064	-707.7809448242189	-367.8823547363282	497.2364501953126	-820.5125732421877	-366.2646484375001	406.9199523925782	-685.0889282226564	-429.0838623046876	328.7040100097657	-650.0288696289064	-382.3570251464844	325.4186706542969	-658.8542480468751	-364.9077453613282	275.6722717285157	-685.6000976562501	-423.8641052246095	98.12569427490237	-625.7158813476564	-374.3556823730469	94.8048782348633	-704.5713500976564	-465.6778564453126	44.54632186889649	-683.5880737304689	-247.2921295166016	60.08081054687501	-618.4404296875001	-260.3646240234376	61.36749649047853	-583.0487060546876	-286.3134460449219	41.49698638916016	-538.3862915039064	nan	nan	nan	
3	0.01	-184.7284851074219	1799.098022460938	-939.2557373046877	-341.4149475097657	1723.812377929688	-1017.409423828125	-356.4629821777344	1722.694702148438	-873.0051879882815	-425.4476623535157	1578.066772460938	-949.8374023437502	-445.2503662109376	1240.029052734375	-943.876647949219	-262.7731018066407	1519.61181640625	-946.337585449219	-327.5063476562501	1545.726928710938	-1139.43798828125	-372.6946716308594	1400.00537109375	-1299.3251953125	-335.2695007324219	1364.566772460938	-1303.47802734375	-382.3525695800782	1347.440063476563	-1341.769409179688	-373.6079101562501	1285.585693359375	-1373.615356445313	-447.6703186035157	1258.805786132813	-1335.272583007813	-322.5960998535157	1064.063354492188	-1168.89306640625	-275.5632324218751	1025.71435546875	-1221.947998046875	-275.1409606933594	1046.99609375	-1111.65966796875	-305.1339416503907	1549.52001953125	-755.1596679687501	-368.3133544921876	1414.674438476563	-581.6260375976564	-339.0022888183594	1373.866943359375	-580.1136474609376	-380.4191894531251	1359.423461914063	-538.9937744140626	-380.1189270019532	1294.014770507813	-510.3126525878907	-461.6518554687501	1275.724243164063	-542.4830932617189	-363.3178100585938	1061.674072265625	-693.0194091796876	-302.5469055175782	1035.0537109375	-649.1740112304689	-307.2302551269532	1065.600219726563	-743.9663085937501	-250.3363342285157	1033.283569335938	-1074.720092773438	-260.9312744140626	1046.683227539063	-792.7830810546877	-457.7314453125001	1133.784423828125	-937.7849121093752	-462.1937561035157	1102.787231445313	-966.3980712890627	-467.9628906250001	1102.726684570313	-911.0715942382815	-351.4677124023438	758.2155151367189	-1162.057495117188	-303.4344177246094	750.1677856445314	-1156.259887695313	-390.288543701172	710.8846435546876	-1152.5625	-390.9968261718751	561.3138427734376	-1147.9892578125	-372.6647033691407	515.0065307617189	-1024.71728515625	-360.4023437500001	337.3868408203126	-1137.950927734375	-403.8985290527345	307.7912902832032	-1210.891235351563	-367.0598144531251	299.4604187011719	-1183.23388671875	-365.7814941406251	213.1934051513672	-1169.7236328125	-432.5467224121095	102.4651718139649	-1224.962890625	-472.4874572753907	46.4236183166504	-1174.738891601563	-254.1668853759766	59.88483810424806	-1198.4970703125	-262.9851379394532	59.03158187866212	-1239.80224609375	-386.4388427734376	101.8066711425782	-1148.018310546875	-415.3260803222657	734.6815795898439	-716.2313842773439	-387.4281616210939	674.8822631835939	-701.1820068359376	-353.8082885742188	671.1726684570314	-699.1470947265626	-422.8072814941407	603.0510864257814	-715.6949462890626	-425.3064880371095	534.3814697265626	-707.7624511718751	-367.8823547363282	497.2364196777345	-820.5125732421877	-366.2922668457032	406.9403076171876	-685.0699462890626	-429.1182861328126	328.7113342285157	-649.9974365234376	-382.3763122558594	325.4230041503907	-658.8834838867189	-364.8966369628907	275.6667480468751	-685.5825195312501	-423.8605346679689	98.09019470214847	-625.7381591796876	-374.3619384765626	94.84590148925783	-704.5665283203126	-465.6982421875001	44.55327987670899	-683.6080932617189	-247.2987518310547	60.03128814697267	-618.4251098632814	-260.3563842773438	61.35966110229494	-582.9968872070314	-286.3015747070313	41.46955490112305	-538.3778076171876	nan	nan	nan	
4	0.015	-184.786376953125	1798.855224609375	-939.0811157226565	-341.5322875976563	1723.798828125	-1017.359985351563	-356.6623535156251	1722.659790039063	-872.9587402343752	-425.479217529297	1578.00537109375	-949.7492675781252	-445.2108154296876	1240.026977539063	-943.8646240234377	-262.8387756347657	1519.619384765625	-946.2803955078127	-327.4229125976563	1545.705078125	-1139.393920898438	-372.5208129882813	1399.99169921875	-1299.250854492188	-335.0688781738282	1364.48974609375	-1303.435424804688	-380.7792968750001	1347.16455078125	-1341.697387695313	-373.5014038085938	1285.5458984375	-1373.563842773438	-447.5545654296876	1258.767578125	-1335.275024414063	-322.4626159667969	1064.13134765625	-1168.823608398438	-275.4282836914063	1025.7275390625	-1221.891479492188	-275.0409851074219	1046.948486328125	-1111.575561523438	-305.2081909179688	1549.518432617188	-755.0997924804689	-368.3318786621094	1414.668579101563	-581.5596313476564	-339.0284729003907	1373.846435546875	-579.9915771484376	-380.4924316406251	1359.419067382813	-538.9327392578126	-380.1670532226563	1294.001342773438	-510.2413940429689	-461.6593322753907	1275.702880859375	-542.4346313476564	-363.3736267089844	1061.674560546875	-692.8847045898439	-302.5798034667969	1035.046142578125	-649.0971069335939	-307.1999206542969	1065.590209960938	-743.8677368164064	-250.3081054687501	1033.224365234375	-1074.662475585938	-260.9820556640626	1046.72021484375	-792.704284667969	-457.7618103027345	1133.79248046875	-937.7391357421877	-462.2285156250001	1102.7724609375	-966.328552246094	-468.0308837890626	1102.767944335938	-911.005310058594	-351.4463500976563	758.2384643554689	-1162.0322265625	-303.3351745605469	750.1846923828126	-1156.215454101563	-390.2448120117189	710.8570556640626	-1152.5205078125	-390.9312438964845	561.3352661132814	-1147.910034179688	-372.6605224609376	514.9794311523439	-1024.701782226563	-359.6612854003907	336.9580078125001	-1137.50927734375	-403.9312744140626	307.7644042968751	-1210.876342773438	-367.0972900390626	299.4513549804688	-1183.21826171875	-365.7866821289063	213.1705474853516	-1169.733276367188	-432.5366516113282	102.4200210571289	-1224.978515625	-472.4901123046876	46.44419479370118	-1174.739990234375	-254.1177368164063	59.90096664428712	-1198.468994140625	-262.9859008789063	59.03629684448244	-1239.83642578125	-386.480438232422	101.7808380126953	-1148.018920898438	-415.3346252441407	734.6873779296876	-716.1672973632814	-387.440887451172	674.8890991210939	-701.1192016601564	-353.7686767578126	671.1757812500001	-699.1231689453126	-422.8256835937501	603.0333862304689	-715.7045288085939	-425.3064880371095	534.3814697265626	-707.7624511718751	-367.8600769042969	497.243621826172	-820.4619750976565	-366.3185119628907	406.9130249023439	-685.0552978515626	-429.0415039062501	328.5852966308594	-649.8884277343751	-382.3994750976563	325.4153137207032	-658.8276367187501	-364.9020385742188	275.6709594726563	-685.5530395507814	-423.8500976562501	98.11827087402347	-625.7045898437501	-374.3559265136719	94.84231567382814	-704.5524291992189	-465.7219238281251	44.54602050781251	-683.5783691406251	-247.2946319580079	60.09470748901369	-618.4181518554689	-260.3622436523438	61.37981033325197	-583.0286865234376	-286.3075866699219	41.49281692504884	-538.3513793945314	nan	nan	nan	
